<?xml version="1.0" standalone="no"?>
<!DOCTYPE svg PUBLIC "-//W3C//DTD SVG 20010904//EN"
 "http://www.w3.org/TR/2001/REC-SVG-20010904/DTD/svg10.dtd">
<svg version="1.0" xmlns="http://www.w3.org/2000/svg"
 width="512.000000pt" height="512.000000pt" viewBox="0 0 512.000000 512.000000"
 preserveAspectRatio="xMidYMid meet">

<g transform="translate(0.000000,512.000000) scale(0.100000,-0.100000)"
fill="#000000" stroke="none">
<path d="M2515 4657 c-22 -18 -27 -34 -32 -85 l-6 -63 -49 -21 c-90 -38 -178
-162 -178 -249 0 -20 -9 -32 -35 -48 -20 -11 -39 -31 -44 -43 -12 -34 7 -79
40 -92 l29 -10 0 -123 0 -123 -88 0 c-64 0 -94 -4 -110 -16 -52 -36 -47 -106
8 -127 20 -7 30 -18 30 -32 1 -63 -73 -2341 -75 -2343 -2 -2 -44 8 -94 23
-184 54 -292 52 -416 -9 -58 -29 -130 -89 -433 -365 l-363 -330 -56 -7 c-84
-10 -186 2 -303 36 -63 18 -141 33 -197 37 -89 6 -92 5 -117 -20 -32 -32 -33
-71 -3 -101 19 -19 37 -24 108 -29 49 -3 128 -19 189 -37 187 -55 318 -52 565
15 138 37 272 32 425 -15 97 -30 116 -33 250 -34 139 -1 150 1 260 34 106 32
125 35 245 35 113 0 141 -4 215 -27 190 -60 348 -62 535 -6 100 30 122 33 240
33 118 0 140 -3 240 -33 192 -58 325 -55 574 13 126 34 236 34 362 0 246 -67
382 -70 569 -15 61 18 140 34 189 37 71 5 89 10 108 29 30 30 29 69 -3 101
-25 25 -28 26 -117 20 -56 -4 -133 -19 -197 -37 -58 -17 -142 -34 -187 -37
l-81 -6 -699 398 c-384 219 -699 399 -701 400 -3 2 -72 2131 -72 2220 0 36 3
42 30 52 55 21 60 91 8 127 -16 12 -46 16 -110 16 l-88 0 0 123 0 123 29 10
c33 13 52 58 40 92 -5 12 -24 32 -44 43 -26 16 -35 28 -35 48 0 87 -88 211
-178 249 l-49 21 -6 63 c-5 51 -10 67 -32 85 -14 13 -35 23 -45 23 -10 0 -31
-10 -45 -23z m134 -315 c37 -27 61 -64 71 -105 l8 -37 -168 0 -168 0 7 33 c14
59 50 105 101 126 35 15 120 5 149 -17z m79 -419 l3 -123 -171 0 -170 0 0 118
c0 65 3 122 7 126 4 3 79 5 167 4 l161 -3 3 -122z m166 -490 c3 -120 9 -266
12 -324 l6 -106 -33 -7 c-46 -9 -69 -33 -69 -73 0 -41 30 -73 69 -73 28 0 29
-2 35 -57 3 -32 8 -181 12 -330 l7 -273 -373 0 -373 0 7 273 c4 149 9 298 12
330 l6 57 191 0 c163 0 193 2 209 17 26 23 24 84 -3 109 -19 17 -41 19 -211
22 l-190 3 6 107 c3 59 9 205 12 325 l6 217 328 0 328 0 6 -217z m50 -1610 c3
-120 8 -247 10 -281 l4 -64 -27 6 c-186 43 -221 37 -526 -84 l-248 -99 7 184
c3 102 9 268 12 370 l7 185 377 0 378 0 6 -217z m-52 -488 c60 -30 1108 -629
1105 -632 -2 -1 -102 26 -223 61 -120 35 -338 99 -484 141 -146 42 -334 97
-419 122 -167 48 -184 48 -216 0 -20 -31 -11 -73 19 -92 11 -8 248 -80 526
-160 278 -81 512 -151 520 -155 24 -14 -55 -25 -175 -25 -96 0 -124 5 -225 35
-110 33 -122 35 -265 35 -142 -1 -156 -3 -265 -35 -104 -32 -127 -35 -235 -35
-108 1 -132 4 -235 35 -109 33 -123 35 -260 35 -137 0 -152 -2 -260 -35 -104
-31 -127 -35 -235 -35 -107 0 -133 4 -235 34 -84 25 -144 36 -221 40 l-106 6
253 230 c139 127 273 240 299 253 68 34 141 43 217 27 34 -8 186 -50 337 -93
296 -86 316 -88 340 -36 15 35 14 47 -9 76 -12 16 -41 31 -80 42 -34 10 -60
19 -58 21 6 6 363 148 393 156 44 12 159 3 197 -16z"/>
<path d="M1563 4428 c-33 -16 -48 -60 -31 -95 11 -23 30 -34 103 -60 50 -17
105 -32 123 -32 62 -2 95 70 55 117 -16 17 -191 83 -218 81 -6 0 -20 -5 -32
-11z"/>
<path d="M3411 4406 c-51 -17 -99 -40 -107 -51 -18 -25 -18 -65 2 -93 21 -31
69 -28 179 11 73 26 92 37 103 60 17 36 2 79 -34 96 -33 15 -34 14 -143 -23z"/>
<path d="M1244 4028 c-22 -10 -44 -47 -44 -74 0 -8 11 -26 25 -39 l24 -25 311
0 c297 0 311 1 330 20 30 30 27 83 -6 109 -26 20 -38 21 -323 20 -182 0 -304
-4 -317 -11z"/>
<path d="M3236 4019 c-33 -26 -36 -79 -6 -109 19 -19 33 -20 330 -20 l311 0
24 25 c28 27 30 42 14 78 -20 44 -43 47 -353 47 -282 0 -294 -1 -320 -21z"/>
<path d="M1650 3659 c-98 -33 -135 -66 -125 -108 9 -38 34 -61 65 -61 36 0
199 56 222 76 42 39 5 125 -53 123 -13 0 -62 -14 -109 -30z"/>
<path d="M3312 3667 c-27 -29 -29 -78 -4 -101 21 -19 185 -76 218 -76 29 0 62
29 69 60 11 45 -24 75 -128 109 -110 37 -127 38 -155 8z"/>
</g>
</svg>
